<?xml version="1.0" encoding="UTF-8" standalone="no"?>
<svg
   height="796.067"
   viewBox="0 0 1781.408 796.067"
   width="1781.408"
   version="1.1"
   id="svg3"
   xmlns="http://www.w3.org/2000/svg"
   xmlns:svg="http://www.w3.org/2000/svg">
  <defs
     id="defs3">
    <clipPath
       id="a-0">
      <path
         d="M 319.3,0 C 495.645,0 252.234,208.923 407.893,319.3 563.552,429.677 495.645,638.6 319.3,638.6 142.955,638.6 0,495.645 0,319.3 0,142.955 142.956,0 319.3,0 Z"
         transform="translate(297.858,1341)"
         id="path1" />
    </clipPath>
    <linearGradient
       id="b"
       gradientUnits="userSpaceOnUse"
       x1="281.07048"
       x2="281.07048"
       y2="562.14096"
       gradientTransform="scale(0.88027084,1.136014)"
       y1="0">
      <stop
         offset="0"
         stop-color="#dddff9"
         id="stop1-2" />
      <stop
         offset="1"
         stop-color="#5864ff"
         id="stop2-4" />
    </linearGradient>
    <clipPath
       id="a-05">
      <path
         d="M 319.3,0 C 495.645,0 252.234,208.923 407.893,319.3 563.552,429.677 495.645,638.6 319.3,638.6 142.955,638.6 0,495.645 0,319.3 0,142.955 142.956,0 319.3,0 Z"
         transform="translate(297.858,1341)"
         id="path1-2" />
    </clipPath>
  </defs>
  <linearGradient
     id="a"
     gradientUnits="objectBoundingBox"
     x1=".5"
     x2=".5"
     y2="1">
    <stop
       offset="0"
       stop-color="#5864ff"
       id="stop1" />
    <stop
       offset="1"
       stop-color="#6a74ff"
       id="stop2" />
  </linearGradient>
  <path
     d="m1650.595 755.5c56.3 272.618-131.189 364.024-310.13 505.374-347.561 273.959-503.57 14.469-1065.8 253.673s-359.832-759.047-359.832-759.047z"
     fill="#5864ff"
     transform="translate(120.633 -755.5)"
     id="path2"
     style="fill:#d40000;fill-opacity:1" />
  <path
     d="m-113.148 755.5c-41.4 185.71 96.459 247.977 228.027 344.266 255.548 186.624 370.256 9.856 783.643 172.8s264.57-517.07 264.57-517.07z"
     fill="url(#a)"
     transform="translate(286.464 -753.856)"
     id="path3"
     style="fill:#c7344b;fill-opacity:1" />
</svg>
