<?xml version="1.0" encoding="UTF-8" standalone="no"?>
<svg
   height="638.601"
   viewBox="0 0 494.836 638.601"
   width="494.836"
   version="1.1"
   id="svg3"
   sodipodi:docname="about-right-shape.svg"
   inkscape:version="1.3-dev (77bc73e, 2022-05-18)"
   xmlns:inkscape="http://www.inkscape.org/namespaces/inkscape"
   xmlns:sodipodi="http://sodipodi.sourceforge.net/DTD/sodipodi-0.dtd"
   xmlns="http://www.w3.org/2000/svg"
   xmlns:svg="http://www.w3.org/2000/svg">
  <defs
     id="defs3">
    <clipPath
       id="a-3">
      <path
         d="M 319.3,0 C 495.645,0 252.234,208.923 407.893,319.3 563.552,429.677 495.645,638.6 319.3,638.6 142.955,638.6 0,495.645 0,319.3 0,142.955 142.956,0 319.3,0 Z"
         transform="translate(297.858,1341)"
         id="path1-9" />
    </clipPath>
    <linearGradient
       id="b-8"
       gradientUnits="userSpaceOnUse"
       x1="281.07048"
       x2="281.07048"
       y2="562.14096"
       gradientTransform="scale(0.88027084,1.136014)"
       y1="0">
      <stop
         offset="0"
         stop-color="#dddff9"
         id="stop1-6" />
      <stop
         offset="1"
         stop-color="#5864ff"
         id="stop2-5" />
    </linearGradient>
  </defs>
  <sodipodi:namedview
     id="namedview3"
     pagecolor="#ffffff"
     bordercolor="#666666"
     borderopacity="1.0"
     inkscape:showpageshadow="2"
     inkscape:pageopacity="0.0"
     inkscape:pagecheckerboard="0"
     inkscape:deskcolor="#d1d1d1"
     showgrid="false"
     inkscape:zoom="0.50733803"
     inkscape:cx="113.33666"
     inkscape:cy="332.1257"
     inkscape:window-width="1676"
     inkscape:window-height="1055"
     inkscape:window-x="0"
     inkscape:window-y="34"
     inkscape:window-maximized="1"
     inkscape:current-layer="svg3" />
  <clipPath
     id="a">
    <path
       d="m175.536 0c-176.345 0 67.064 208.923-88.593 319.3s-87.752 319.3 88.593 319.3 319.3-142.956 319.3-319.3-142.955-319.3-319.3-319.3z"
       id="path1" />
  </clipPath>
  <linearGradient
     id="b"
     gradientUnits="objectBoundingBox"
     x1=".5"
     x2=".5"
     y1="1">
    <stop
       offset="0"
       stop-color="#dddff9"
       id="stop1" />
    <stop
       offset="1"
       stop-color="#5864ff"
       id="stop2" />
  </linearGradient>
  <path
     d="m175.536 0c-176.345 0 67.064 208.923-88.593 319.3s-87.752 319.3 88.593 319.3 319.3-142.956 319.3-319.3-142.955-319.3-319.3-319.3z"
     fill="#5864ff"
     id="path2"
     style="fill:#d40000;fill-opacity:1" />
  <g
     clip-path="url(#a)"
     id="g3">
    <path
       d="m319.3 638.6c176.345 0-67.066-208.922 88.593-319.3s87.752-319.3-88.593-319.3-319.3 142.956-319.3 319.3 142.956 319.3 319.3 319.3z"
       fill="url(#b)"
       opacity=".3"
       id="path3" />
  </g>
</svg>
